<svg viewBox="0 0 203 108.5" xmlns="http://www.w3.org/2000/svg"><path d="M0 0h203v73.1H0z" fill="#fff"/><path d="M81.9 32.9s.1 0 .1.1l.1.1c.2 0 .3-.3.3-.8 0-.4-.3-.6-.8-.6-.4 0-.8.2-1.3.6-1 .9-1.6 1.4-1.8 1.6-.6.6-1.2 1.2-1.6 1.8-.4.5-.9 1.3-1.5 2.4-.1.2-.1.3-.1.5 0 .3.3.5.8.5 1.2 0 2.4-.6 3.6-1.9-.1-.1-.1-.2-.1-.4 0-.4.3-1 .9-2.1.7-1.3 1.1-1.8 1.4-1.8zm44.7 25.9c.5-.5.7-1 .7-1.3 0-.2-.1-.3-.4-.3-.5 0-1 .3-1.7.9-1.4 1.3-2.4 2.4-3 3.2 1.3-.3 2.5-.8 3.6-1.7.2-.1.5-.4.8-.8zM48.9 27.1c-3.3.1-5.9.5-7.9.9-1.1 3.3-2.6 5.7-4.3 7.5.8-.6 2.3-1.6 3.6-2.3 1.7-1 2.8-1.5 3.3-1.7.6-.2 1.2-.3 1.6-.3.7 0 1.1.4 1.1 1.1 0 .2 0 .4-.1.7-.1.4-.3 1-.8 1.6-.2.4-.5.6-.7.8s-.4.4-.5.6c-.1.1-.1.2-.1.3s.1.2.4.2c.5 0 5.1-3.8 5.7-4.2l4.9-6.7c-1.4.9-2.2 1.2-6.2 1.5zm-2 8.2c.1-.1.1-.1 0 0 0-.1 0-.1 0 0zm-28.8 3.8c.8 0 1.7-.9 2.7-2.7-.3 0-.6-.1-.9-.1-2.4 0-3.6 2.8-1.8 2.8zm79.6 3c-1 0-3.6 4.1-3.6 4.1s5.9-4.1 3.6-4.1zM39.4 28.3c-3.2.8-4.6 1.6-4.6 1.6s1.5-1.2 4.8-2.2c1.1-3.5 2.8-11.9-3.8-15.1-1.7 2.4-3.7 5.8-5.8 10.7-.8 1.8-1.5 3.4-2.3 4.9 2.4-.8 4.2-1.6 3.9-1.4-.5.3-1.9 1.2-4.2 2-1.6 3.2-3.1 5.8-4.6 7.7 2.2 1 4.4 2.5 6.1 2.4 3.3-.2 9.7-8.2 10.3-10 0-.1.1-.3.2-.6z" fill="#d33f3e"/><path d="M45.3 32.9s.1 0 .1.1l.1.1c.2 0 .3-.3.3-.8 0-.4-.3-.6-.8-.6-.4 0-.8.2-1.3.6-1 .9-1.6 1.4-1.8 1.6-.6.6-1.2 1.2-1.6 1.8-.4.5-.9 1.3-1.5 2.4-.1.2-.1.3-.1.5 0 .3.3.5.8.5 1.2 0 2.4-.6 3.6-1.9-.1-.1-.1-.2-.1-.4 0-.4.3-1 .9-2.1.7-1.3 1.1-1.8 1.4-1.8zm53.2 25.5s.1 0 .1.1l.1.1c.2 0 .3-.3.3-.8 0-.4-.3-.6-.8-.6-.4 0-.8.2-1.3.6-1 .9-1.6 1.4-1.8 1.6-.6.6-1.2 1.2-1.6 1.8-.4.5-.9 1.3-1.5 2.4-.1.2-.1.3-.1.5 0 .3.3.5.8.5 1.2 0 2.4-.6 3.6-1.9-.1-.1-.1-.2-.1-.4 0-.4.3-1 .9-2.1.6-1.3 1.1-1.8 1.4-1.8zM64 17.1c.1-.3.7-1.1-.1-1.2-.5 0-2.1 2.1-2.6 2.8l-2.7 4.2c2.9-2.2 4.9-4.9 5.4-5.8zm67.3-1.8c0-.9 0-1.9-.8-2.1-.2 2.6-4.7 11.3-9.2 13.3 0 .3-3.5 8.1-8.2 7.9-1.6-.1-2.7-1.1-2.9-2.2-.2-1.2 0-2.8 0-2.8s-.4 4.6 2.9 4.5c4.2-.1 6.7-6.4 6.9-7-.2 0-.6.1-.8.1-2.6 0-3.8-1.8-3.2-4.5.1-.5.2-.9.4-1.4-1 0-2.4.4-3.9 1.1-.3.9-.5 1.5-.6 1.7-.2.5-.4.6-.4.6s.1-.8.4-1.9c-2.5 1.5-5.4 4.2-5.6 9.1 0 1.8.7 6.7 5.8 6.6 2.3 0 6.8-3.9 7.8-5 .7-.8 2.1-2.6 4.4-5.5 2.8-3.9 6.8-10 7-12.5z" fill="#d33f3e"/><path d="M116.8 21c-.2.7-.4 1.4-.4 2.2-.1 1.6.7 2.8 1.6 3 .7.2 1.5 0 2.3-.5.1-2.7 0-4.4-3.1-4.6-.2 0-.3-.1-.4-.1zm-96 .4c-1.3 0-2.4 1.4-3 2.8 1.1-.1 3.7-.6 3.7-1.8 0-.1-.1-1-.7-1z" fill="#d33f3e"/><path d="M0 0v108.5h.3l101.2-16 101.2 16h.3V0zm67.7 62.8c-1.4 1.3-2.5 2-3.3 2-.7 0-1-.4-1-1.1 0-.3.1-.7.3-1.1.2-.3.4-.7.6-1-.8.7-1.6 1.3-2.4 2-1.2.9-2 1.4-2.5 1.4-.7 0-1-.4-1-1.1s.3-1.6.9-2.4c.3-.5.8-1.2 1.7-2.1-.2.2-.6.4-1.2.9-.7.5-1 .7-1.1.7s-.2-.2-.3-.5c.5-.3 1.1-.8 2-1.5.4-.4 1.1-.9 2-1.6.1-.1.3-.3.6-.4.1-.1.3-.1.6-.1.6 0 .9.1.9.4 0 .2-.9 1.3-2.6 3.3s-2.6 3.3-2.6 3.7c0 .2.1.2.3.2.5 0 1.4-.6 2.8-1.7 1-.8 1.9-1.6 2.7-2.4.4-.4.8-.9 1.2-1.3.7-.9 1.3-1.6 1.7-2 .2-.1.4-.2.7-.2.6 0 .8.1.8.4 0 .1-.7 1-2 2.6-.8 1-1.6 2-2.4 2.9-.4.5-.6.9-.6 1.1s.1.3.3.3c.5 0 1.4-.6 2.6-1.9 1.2-1.2 1.8-1.9 1.9-1.9.2 0 .2.1.2.2-.1.4-.6 1-1.8 2.2zm7.8-13.3c-.4 0-.7 0-.9-.1l-.1-.1s0-.1.1-.3c0 0 .4-.5 1.1-1.4.5-.6 1.3-1.6 2.4-3l7.3-9.2c.7-.8 1.4-1.8 2.2-2.8-1.1.8-5 4.1-5.5 4.4-.6.3-1 .5-1.5.5-.2 0-.4-.1-.5-.2-1.4 1.5-2.8 2.2-4.1 2.2-.8 0-1.2-.7-1.2-2.1 0-.9.5-2 1.6-3.1-.1.1-5.7 5.3-6.9 5.2-.7 0-1-.4-1-1.2 0-.6.2-1.2.6-1.9.1-.1.5-.6 1.3-1.6l1.4-1.8c.2-.3.4-.5.4-.8s-.1-.4-.4-.4c-.2 0-.9.5-2.1 1.4-1.1.8-1.8 1.4-2.2 1.8-.6.7-1.6 1.7-2.9 2.9-.3.3-.7.7-1.3 1.2-.2.2-.4.2-.6.2-.1 0-.2-.1-.4-.2s-.3-.2-.3-.3c0-.2 1.6-2.1 4.7-5.6.4-.4.5-.7.5-1s-.1-.5-.4-.5c-.1 0-.6.2-1.2.7-1.1.7-2.2 1.6-3.3 2.6-1 1-1.9 2-2.9 2.9-.2.3-.5.5-.7.8-.4.4-.6.5-.8.5-.1 0-.3-.1-.5-.2s-.3-.2-.3-.4c0-.1 1-1.3 2.9-3.5.7-.8 1.3-1.5 1.7-2.1.3-.4.5-.8.5-1.1s-.1-.5-.4-.5c-.7 0-8 7.6-9.5 7.7-.8 0-1.2-.3-1.2-.9 0-.5.3-1.1.8-1.7.5-.7.8-1.1.8-1.4 0-.2-.1-.3-.4-.3-.2 0-.5.1-.9.2-.8.2-1.5.7-2 1.2-.2.2-.7.8-1.5 1.8-.2.3-.5.7-1 1.1-.1 0-.3.1-.5.1-.1 0-.3-.1-.4-.2-.2-.1-.2-.2-.2-.3s.7-1 2.1-2.7 2.2-2.7 2.2-2.7-5.1 4-6 4c-.2 0-.4-.1-.5-.2-1.4 1.5-2.8 2.2-4.1 2.2-.8 0-1.2-.7-1.2-2.1 0-.9.5-2 1.6-3.1-.1.1-.4.3-1 .6s-2.4 1.1-2.4 1.1c-3.2 3.2-6.6 4-7.5 4-3 0-4.4-1.9-6.3-2.9-1.6 2-3.1 3-4.6 2.9-.8 0-1.5-.4-1.5-1.4 0-1.1.9-2.6 3.2-2.7.4 0 .9 0 1.4.2.9-1.6 2-3.7 3.4-6.3-1.5.3-3.1.4-5.1.4-1.7 0-3.7-1.9-3.7-4.1 0-.4.1-1 .4-1.6-1-.5-2.2-1.7-2.2-4 0-8.5 12.9-10 16.5-10 2.1 0 3.8.4 5.3 1.1 3.8-4.7 5.1-3.9 5.1-3.9s-1.7.7-4.4 4.3c5.7 3.2 6.2 11.1 4.9 15.4 2-.5 4.6-.9 7.7-1 4.3-.2 5.5-.9 7.2-1.8 0 0 5.5-9 7.8-9 .9 0 .6 1.2.5 1.4-.4 1.2-3.2 4.8-6.7 7.2 0 0-6.5 9.7-6.8 10.1.1 0 .8-.5 2.2-1.5 1.3-.9 2.2-1.4 3-1.4.6 0 1 .3 1 .9 0 .4-.1.7-.3 1s-.5.4-.9.4c-.2 0-.4-.1-.6-.3s-.2-.4-.2-.6c0-.4.2-.7.7-.7h.1-.1c.1 0 .2 0 .2-.1 0-.2-.1-.2-.3-.2-.9 0-2.3.9-4.3 2.8.3 0 .6-.1.9-.1 1 0 1.5.3 1.5.9 0 .5-.3 1.1-.8 1.8-.5.8-.8 1.2-.8 1.3s.1.2.2.2c1 0 8.7-7.5 9.4-7.5.6 0 .9.3.9 1 0 .5-.3 1.4-.9 2.6 1.5-1.6 3.1-2.8 4.8-3.5.2-.1.4-.1.5-.1.5 0 .8.4.8 1.1 0 .6-.1 1.1-.4 1.5s-.7.8-1 1.2c.1 0 .9-.8 2.5-2.3.4-.3.8-.7 1.4-1 .7-.4 1.2-.6 1.6-.6.6 0 .9.4.9 1.1 0 .6-.3 1.3-.8 1.9-.5.5-1 1.1-1.4 1.6-1.2 1.4-1.7 2.2-1.7 2.4 0 .4.2.6.5.5 1.6-.1 5.8-4.8 7.3-5.7 1.7-1 2.8-1.5 3.3-1.7.6-.2 1.2-.3 1.6-.3.7 0 1.1.4 1.1 1.1 0 .2 0 .4-.1.7-.1.4-.3 1-.8 1.6-.2.4-.5.6-.7.8s-.4.4-.5.6c-.1.1-.1.2-.1.3s.1.2.4.2c.5 0 7.6-5.9 8-6.2.2-.2.3-.2.3-.2.2 0 .3.2.3.5 0 .2-.4.8-1.3 1.9s-1.3 1.7-1.3 1.9v.1h.1c.1 0 .8-.6 2-1.6 1.2-1.1 2.1-1.6 2.7-1.6.7 0 1 .4 1 1.1 0 .6-.4 1.5-1.1 2.5-.4.5-1.1 1.3-2.1 2.4-.8.8-1.1 1.3-1.1 1.5s.1.3.3.3c.1 0 .2 0 .4-.1.7-.3 1.5-.9 2.4-1.8 0 0 .4-.4 1.1-1.3.6-.7.9-1 1.1-1s.3.1.3.2c0 .3-.4.9-1.3 1.9-1.6 1.7-2.9 2.5-4 2.5-.6 0-.9-.4-.9-1.1 0-.8 1-2.2 2.9-4.3.2-.2.5-.5.9-1 .2-.3.3-.6.3-.9s-.1-.4-.4-.4c-.4 0-1.1.5-2.2 1.5-.5.5-1.3 1.1-2.3 2.1-.9.9-2.4 2.7-4.6 5.4-1.4 1.9-3.5 4.6-6.3 8.2-.4.8-.6 1-.9 1zM143 62.8c-1.4 1.3-2.5 2-3.3 2-.7 0-1-.4-1-1.1 0-.3.1-.7.3-1.1.2-.3.4-.7.6-1-.8.7-1.6 1.3-2.4 2-1.2.9-2 1.4-2.5 1.4-.7 0-1-.4-1-1.1s.3-1.6.9-2.4c.3-.5.8-1.2 1.7-2.1-.2.2-5.7 5.6-6.9 5.6-.8 0-1.2-.5-1.2-1.4 0-.5.5-1.3 1.4-2.4 1.2-1.5 1.9-2.3 1.9-2.4.1-.2.2-.4.2-.6 0-.4-.2-.6-.5-.6-1.1-.1-6.4 7.4-9.7 7.4-.5 0-.8-.1-.9-.3-.3-.3-.4-.8-.4-1.4 0-1 .5-2.1 1.6-3.3-.2 0-5.2 4.9-7 4.9-.3 0-.6-.1-.8-.3s-.3-.5-.3-.8v-.2c.1-.7.8-1.9 2.1-3.4.2-.3.6-.8 1-1.4 0-.1.1-.2 0-.2 0 0-.6.5-1.9 1.8l-3 3c-.1.1-1.3 1.5-2.5 1.5-.3 0-.6-.1-.8-.4-.2-.2-.4-.5-.4-.8 0-.2 0-.4.1-.5-1.6 1.3-2.4 1.7-3.3 1.7-.3 0-.6-.1-.8-.3s-.3-.5-.3-.8c0-.7.7-1.9 2.1-3.6.2-.3.6-.8 1-1.4 0-.1.1-.2 0-.2 0 0-.6.5-1.9 1.8-.8.8-2 1.9-2.7 2.7-1 1.2-2 1.8-2.8 1.8-.3 0-.6-.1-.8-.4-.2-.2-.4-.5-.4-.8 0-.4.1-.7.3-.9-.4.2-1.8 0-2-.2-1.4 1.5-2.8 2.2-4.1 2.2-.8 0-1.2-.7-1.2-2.1 0-.9.5-2 1.6-3.1-.1.1-5.6 5.1-6.6 5.1-.8 0-1.2-.3-1.2-.9 0-.5.3-1.1.8-1.7.5-.7.8-1.1.8-1.4 0-.2-.1-.3-.4-.3-.2 0-.5.1-.9.2-.8.2-1.5.7-2 1.2-.2.2-.7.8-1.5 1.8-.2.3-.5.7-1 1.1-.1 0-.3.1-.5.1-.1 0-.3-.1-.4-.2-.2-.1-.2-.2-.2-.3s12.6-16.7 12.6-16.7C85.8 50.8 77 53.7 77 53.7l-.3-.1s9.5-3.3 15.9-6.5c0 0 3-5.6 5.5-5.6.7 0 .8.5.7.9-.1.6-2.4 2.9-4.8 4.2 0 0-8.5 12.1-9.2 13.1.1 0 .8-.5 2.2-1.5 1.3-.9 2.2-1.4 3-1.4.6 0 1 .3 1 .9 0 .4-.1.7-.3 1s-.5.4-.9.4c-.2 0-.4-.1-.6-.3s-.2-.4-.2-.6c0-.4.2-.7.7-.7h.2c.1 0 .2 0 .2-.1 0-.2-.1-.2-.3-.2-.9 0-2.3.9-4.3 2.8.3 0 .6-.1.9-.1 1 0 1.5.3 1.5.9 0 .5-.3 1.1-.8 1.8s-.8 1.2-.8 1.3.1.2.2.2c.4 0 5.3-4.3 7-5.5 1.6-1.1 2.8-1.5 3.3-1.7.6-.2 1.2-.3 1.6-.3.7 0 1.1.4 1.1 1.1 0 .2 0 .4-.1.7-.1.4-.3 1-.8 1.6-.3.4-1.1 1.2-1.2 1.4-.2.7.1 1 .4 1.1h1c.1 0 .3-.1.4-.1.5 0 .7.2.7.7s-.3.7-.8.7h-.2c.1.3.3.5.6.5.6 0 1.1-.3 1.6-.8.1-.1.7-.7 1.3-1.2 3.5-3.6 6.8-5.8 6.8-5.8s.7 0 .7.1c0 0-1.7 2.2-4.8 6.4-.2.3-.3.5-.3.6 0 .4.2.5.5.5.5 0 1.2 0 3-1.4.2-.2.4-.3.7-.3.5 0 .7.2.7.7s-.3.7-.8.7h-.2c.1.3.3.5.6.5.6 0 1.1-.3 1.6-.8l.1-.1 1.2-1.2c3.5-3.6 6.8-5.8 6.8-5.8s.6 0 .6.1c0 0-1.6 2.2-4.7 6.4-.1.1-.1.1-.1.2 0 0-.2.4-.2.5 0 .4.2.5.5.5 1.4 0 8.4-7.5 11.7-7.5.7 0 1.1.3 1.1.8 0 .8-.5 1.6-1.6 2.4-.9.6-1.8 1.1-2.7 1.4-.5.1-1.1.3-1.7.6-.1.1-.3.4-.6.9s-.3.8-.3 1c0 .3.3.5.9.5 3.2-.2 7.9-7.6 10.2-7.6.7 0 1.1.4 1.1 1.1 0 .9-.6 2-1.9 3.4s-1.9 2.3-1.9 2.7c0 .3.1.5.4.5.7 0 7.3-6.4 8.2-7.2.1-.1.3-.3.6-.4.1-.1.3-.1.6-.1.6 0 .9.1.9.4 0 .2-.9 1.3-2.6 3.3s-2.6 3.3-2.6 3.7c0 .2.1.2.3.2.5 0 1.4-.6 2.8-1.7 1-.8 1.9-1.6 2.7-2.4.4-.4.8-.9 1.2-1.3.7-.9 1.3-1.6 1.7-2 .2-.1.4-.2.7-.2.6 0 .8.1.8.4 0 .1-.7 1-2 2.6-.8 1-1.6 2-2.4 2.9-.4.5-.6.9-.6 1.1s.1.3.3.3c.5 0 1.4-.6 2.6-1.9 1.2-1.2 1.8-1.9 1.9-1.9.2.1.2.1.2.3-.4.5-1 1.2-2.1 2.4zM187.7 37c-1.6 1.7-2.9 2.5-3.8 2.5-.3 0-.6-.1-.8-.3s-.3-.5-.3-.8c0-.7.5-1.7 1.5-2.9l-2.8-.2c-.4.6-1.1 1.5-2.3 2.8-.2.2-.5.6-.9 1-.2.2-.4.2-.7.2-.1 0-.3-.1-.4-.2-.2-.1-.3-.2-.3-.3s.7-1 2.1-2.7c.8-1 1.7-2 2.5-2.9.3-.4.5-.7.5-1 0-.4-.1-.5-.4-.5-.4 0-1.3.6-2.6 1.8-1 .9-2.4 2.7-3.6 3.8-1.4 1.3-2.5 2-3.3 2-.7 0-1-.4-1-1.1 0-.3.1-.7.3-1.1.2-.3.4-.7.6-1-.8.7-1.6 1.3-2.4 2-1.2.9-2 1.4-2.5 1.4-.7 0-1-.4-1-1.1s.3-1.6.9-2.4c.3-.5.8-1.2 1.7-2.1-.2.2-6 5.7-7.5 5.8-.6 0-.9-.4-.9-1.1 0-.8 1-2.2 2.9-4.3.2-.2.5-.5.9-1 .2-.3.3-.6.3-.9s-.1-.4-.4-.4c-.4 0-1.1.5-2.2 1.5-.5.5-1.3 1.1-2.3 2.1-.9.9-2.4 2.7-4.6 5.4-1.4 1.9-3.5 4.6-6.3 8.2-.2.2-.5.4-.8.4-.4 0-.7 0-.9-.1l-.1-.1s0-.1.1-.3c0 0 .4-.5 1.1-1.4.5-.6 1.3-1.6 2.4-3l7.3-9.2c.7-.8 1.4-1.8 2.2-2.8-1.1.8-7.7 7.1-9.2 7-.7 0-1-.4-1-1.2 0-.6.2-1.2.6-1.9.1-.1.5-.6 1.3-1.6l1.4-1.8c.2-.3.4-.5.4-.8s-.1-.4-.4-.4c-.2 0-.9.5-2.1 1.4-1.1.8-1.8 1.4-2.2 1.8-.6.7-1.6 1.7-2.9 2.9-.3.3-.7.7-1.3 1.2-.2.2-.4.2-.6.2-.1 0-.2-.1-.4-.2s-.3-.2-.3-.3c0-.2 1.6-2.1 4.7-5.6.4-.4.5-.7.5-1s-.1-.5-.4-.5c-.1 0-.6.2-1.2.7-1.1.7-2.2 1.6-3.3 2.6-1 1-1.9 2-2.9 2.9-.2.3-.5.5-.7.8-.4.4-.6.5-.8.5-.1 0-.3-.1-.5-.2s-.3-.2-.3-.4c0-.1 1-1.3 2.9-3.5.7-.8 1.3-1.5 1.7-2.1.3-.4.5-.8.5-1.1s-.1-.5-.4-.5c-.1 0-.2 0-.3.1-.8.3-1.7 1-2.7 2-.8.8-2.1 2.4-3.3 3.5-1.4 1.3-2.5 2-3.3 2-.7 0-1-.4-1-1.1 0-.3.1-.7.3-1.1.2-.3.4-.7.6-1-.8.7-1.6 1.3-2.4 2-1.2.9-2 1.4-2.5 1.4-.7 0-1-.4-1-1.1s.3-1.6.9-2.4c.3-.5.8-1.2 1.7-2.1-.2.2-.6.4-1.2.9-.3.2-5 4.4-7.1 4.3-.9 0-1.3-1.2-1.3-2.2 0-.8.1-1.5.3-2.3-1.8 1.1-5.5 4.5-8.8 4.5-2.2 0-6.4-.8-6.3-7.4.1-4.4 2.9-7.8 6.2-9.5 1.2-4.1 7-14.6 16.6-14.3 2.4.1 2.4 2.6 2 4.9 1.6.5 1.5 3.5 1.2 4.9-.2.8-1.1 2.7-1.2 3v.1c.1 0 2.8-2.8 3.9-2.8 1.7 0 1.1 1.6 1.1 1.6l-.3.9h-.2s.6-1.8 0-1.9c-1-.1-5.1 4.3-5.6 5-5.2 7.2-9.3 15.2-7.8 15.1 1.5 0 6.7-4.4 7.6-5.1.4-.4 1.1-.9 2-1.6.1-.1.3-.3.6-.4.1-.1.3-.1.6-.1.6 0 .9.1.9.4 0 .2-.9 1.3-2.6 3.3s-2.6 3.3-2.6 3.7c0 .2.1.2.3.2.5 0 1.4-.6 2.8-1.7 1-.8 1.9-1.6 2.7-2.4.4-.4.8-.9 1.2-1.3.7-.9 1.3-1.6 1.7-2 .2-.1.4-.2.7-.2.6 0 .8.1.8.4 0 .1-.7 1-2 2.6-.8 1-1.6 2-2.4 2.9-.4.5-.6.9-.6 1.1s.1.3.3.3c.5 0 1.4-.6 2.6-1.9.9-1 2.3-2.6 3.4-3.6.8-.7 1.5-1.3 2.2-1.6.5-.2.9-.4 1.2-.4.6 0 .9.3.9 1 0 .5-.3 1.4-.9 2.6 1.5-1.6 3.1-2.8 4.8-3.5.2-.1.4-.1.5-.1.5 0 .8.4.8 1.1 0 .6-.1 1.1-.4 1.5s-.7.8-1 1.2c.1 0 .9-.8 2.5-2.3.4-.3.8-.7 1.4-1 .7-.4 1.2-.6 1.6-.6.6 0 .9.4.9 1.1 0 .6-.3 1.3-.8 1.9-.5.5-1 1.1-1.4 1.6-1.2 1.4-1.7 2.2-1.7 2.4 0 .4.2.5.5.5.5 0 10.1-8.2 10.5-8.5.2-.2.3-.2.3-.2.2 0 .3.2.3.5 0 .2-.4.8-1.3 1.9s-1.3 1.7-1.3 1.9v.1h.1c.1 0 .8-.6 2-1.6 1.2-1.1 2.1-1.6 2.7-1.6.7 0 1 .4 1 1.1 0 .6-.4 1.5-1.1 2.5-.4.5-1.1 1.3-2.1 2.4-.8.8-1.1 1.3-1.1 1.5s.1.3.3.3c.1 0 .2 0 .4-.1.7-.3 7.4-6 8.5-7.3.1-.1.3-.3.6-.4.1-.1.3-.1.6-.1.6 0 .9.1.9.4 0 .2-.9 1.3-2.6 3.3s-2.6 3.3-2.6 3.7c0 .2.1.2.3.2.5 0 1.4-.6 2.8-1.7 1-.8 1.9-1.6 2.7-2.4.4-.4.8-.9 1.2-1.3.7-.9 1.3-1.6 1.7-2 .2-.1.4-.2.7-.2.6 0 .8.1.8.4 0 .1-.7 1-2 2.6-.8 1-1.6 2-2.4 2.9-.4.5-.6.9-.6 1.1s.1.3.3.3c.5 0 1.4-.6 2.6-1.9.9-1 2.3-2.7 3.5-3.6.8-.7 1.5-1.2 2.2-1.6.4-.2.8-.4 1.1-.4s.6.1.8.3.3.5.3.8c0 .5-.3 1.3-1 2.2l2.8.2c.3-.3 2.3-3.3 2.6-3.6.1-.1.2-.1.4-.1.6 0 .9.1.9.2 0 0-1.6 2.1-4.7 6.3-.2.3-.3.5-.3.7 0 .3.2.5.5.5.5 0 1.3-.6 2.6-1.9s2-1.9 2-1.9c.2 0 .3.1.3.2.4.7-.1 1.3-1.1 2.3z" fill="#d33f3e"/><path d="M29 21.3c2.4-4.1 4.4-7 6-9-1.4-.5-3.1-.9-5.2-.9-6.5-.1-13.7 3.6-14.1 8-.2 2.5.2 3.7.7 4.3.8-1.4 2.2-2.7 4.3-2.7.9 0 1.5.9 1.5 1.3-.1 2.1-3.5 2.4-4.6 2.4-.3.8-.4 1.5-.4 1.9 0 3.4 3.9 3.3 7.6 2.4 1.1-2.2 2.5-4.8 4.2-7.7zm99.3-9.1c.4 0 .8 0 1.2.1.7-2.2.7-3.9-.9-4.1-3-.3-11.4 1.8-16 13.6 1.3-.6 2.6-.9 3.9-1 2.1-5.3 9-8.6 11.8-8.6z" fill="#d33f3e"/><path d="M121.3 25c1.7-1.3 3.3-3.2 4.4-5.1s2.7-4.8 3.6-7.3c-1.9-.1-10.2 1.8-12.5 8.2h.3c3.6.1 4.3 2 4.2 4.2z" fill="#d33f3e"/><path d="M37.3 83.3c-.2.1-.4.2-.7.3s-.6.1-.9.1c-.4 0-.7-.1-1-.2s-.6-.3-.8-.6-.4-.6-.6-1c-.1-.4-.2-.9-.2-1.4 0-.6.1-1.1.2-1.5.2-.4.4-.7.6-1 .3-.3.5-.4.9-.6s.6-.2 1-.2.6 0 .9.1c.2 0 .4.1.6.2l-.3.6c-.3-.1-.7-.2-1.2-.2-.2 0-.5 0-.7.1s-.4.2-.6.4-.3.5-.4.8-.2.7-.2 1.2c0 .4.1.8.2 1.1s.3.6.4.8c.2.2.4.4.7.5.2.1.5.2.8.2s.5 0 .7-.1.4-.1.5-.2zm5-5.3h-1.9v5.5h-.7V78h-1.9v-.7h4.6v.7zm.4 2.5c0-1 .2-1.8.7-2.4.4-.5 1.1-.8 1.9-.8.4 0 .8.1 1.1.2.3.2.6.4.8.6.2.3.4.6.5 1s.1.8.1 1.3c0 1-.2 1.8-.7 2.4-.4.5-1.1.8-1.9.8-.4 0-.8-.1-1.1-.2-.3-.2-.6-.4-.8-.6-.2-.3-.4-.6-.5-1s-.1-.8-.1-1.3zm.7 0c0 .3 0 .7.1 1s.2.6.3.8.3.4.5.6c.2.1.5.2.8.2.5 0 1-.2 1.3-.6s.5-1.1.5-1.9c0-.3 0-.7-.1-1s-.2-.6-.3-.8-.3-.4-.5-.6c-.2-.1-.5-.2-.8-.2-.5 0-1 .2-1.3.6s-.5 1-.5 1.9zm10.5-1.1l.1-.9-.3.8-1.7 2.8h-.2L50 79.3l-.3-.8.1.9v4.1h-.7v-6.2h.5l1.9 3.1.3.7.3-.7 1.8-3.1h.6v6.2h-.7v-4.1zm5.3 2.4h-2.3l-.6 1.7h-.7l2.3-6.3h.3l2.3 6.3h-.8zm-2-.6H59l-.7-1.9-.2-.9-.2 1zM65 78h-1.9v5.5h-.7V78h-1.9v-.7H65zm.4 2.5c0-1 .2-1.8.7-2.4.4-.5 1.1-.8 1.9-.8.4 0 .8.1 1.1.2.3.2.6.4.8.6.2.3.4.6.5 1s.1.8.1 1.3c0 1-.2 1.8-.7 2.4-.4.5-1.1.8-1.9.8-.4 0-.8-.1-1.1-.2-.3-.2-.6-.4-.8-.6-.2-.3-.4-.6-.5-1s-.1-.8-.1-1.3zm.7 0c0 .3 0 .7.1 1s.2.6.3.8.3.4.5.6c.2.1.5.2.8.2.5 0 1-.2 1.3-.6s.5-1.1.5-1.9c0-.3 0-.7-.1-1s-.2-.6-.3-.8-.3-.4-.5-.6c-.2-.1-.5-.2-.8-.2-.5 0-1 .2-1.3.6s-.5 1-.5 1.9zM75 78h-1.8c-.1 1.2-.1 2.1-.2 2.9s-.2 1.4-.4 1.8c-.1.3-.3.5-.5.6s-.4.2-.6.2h-.3c-.1 0-.1 0-.2-.1l.1-.6h.2c.1 0 .2 0 .3-.1s.2-.2.3-.4.2-.4.2-.6c.1-.3.1-.6.2-1s.1-.9.1-1.4c0-.6.1-1.2.1-2h3.3v6.2H75zm2.2 2.5c0-1 .2-1.8.7-2.4.4-.5 1.1-.8 1.9-.8.4 0 .8.1 1.1.2.3.2.6.4.8.6.2.3.4.6.5 1s.1.8.1 1.3c0 1-.2 1.8-.7 2.4-.4.5-1.1.8-1.9.8-.4 0-.8-.1-1.1-.2-.3-.2-.6-.4-.8-.6-.2-.3-.4-.6-.5-1s-.1-.8-.1-1.3zm.7 0c0 .3 0 .7.1 1s.2.6.3.8.3.4.5.6c.2.1.5.2.8.2.5 0 1-.2 1.3-.6s.5-1.1.5-1.9c0-.3 0-.7-.1-1s-.2-.6-.3-.8-.3-.4-.5-.6c-.2-.1-.5-.2-.8-.2-.5 0-1 .2-1.3.6s-.5 1-.5 1.9zm9-2.5h-2.6v5.5h-.7v-6.2h3.3zm4.5 1.4l.1-.7-.4.7-3 4.2h-.4v-6.2h.7v4.2l-.1.7.4-.7 3-4.2h.4v6.2h-.7zm3.1-2v2c0 .8.4 1.2 1.1 1.2.3 0 .5 0 .8-.1l.6-.3v-2.8h.7v6.2H97v-2.7l-.6.3c-.3.1-.6.1-.9.1-.2 0-.5 0-.7-.1s-.4-.1-.5-.3c-.1-.1-.3-.3-.3-.5-.1-.2-.1-.5-.1-.8v-2.2zm4.8 0h3.4v.6h-2.6v2h2.4v.7h-2.4v2.2h2.7v.7h-3.4v-6.2zm8.9 5.9c-.2.1-.4.2-.7.3s-.6.1-.9.1c-.4 0-.7-.1-1-.2s-.6-.3-.8-.6-.4-.6-.6-1c-.1-.4-.2-.9-.2-1.4 0-.6.1-1.1.2-1.5.2-.4.4-.7.6-1s.5-.4.9-.6c.3-.1.6-.2 1-.2s.6 0 .9.1.4.1.6.2l-.2.7c-.3-.1-.7-.2-1.2-.2-.2 0-.5 0-.7.1s-.4.2-.6.4-.3.5-.4.8-.2.7-.2 1.2c0 .4.1.8.2 1.1s.3.6.4.8c.2.2.4.4.7.5.2.1.5.2.8.2s.5 0 .7-.1.4-.1.5-.2zm2.4-2.6h-.4v2.9h-.7v-6.2h.7v2.9l.4-.1 2.1-2.7h.8l-2.1 2.6-.4.3.4.4 2.3 2.9h-.9zm7.3 1.1h-2.3l-.6 1.7h-.7l2.3-6.3h.3l2.3 6.3h-.8zm-2-.6h1.8l-.7-1.9-.2-.9-.2 1zm7.9 2.3h-.7v-2.7l-.9.2-1.5 2.5h-.9l1.4-2.2.5-.4c-.2 0-.4-.1-.6-.2s-.3-.2-.5-.4c-.1-.1-.2-.3-.3-.5s-.1-.4-.1-.7c0-.4.1-.7.2-.9s.3-.4.5-.6c.2-.1.5-.2.7-.3.3-.1.6-.1.9-.1h.6s.4.1.7.1zm-1.3-5.5c-.2 0-.4 0-.6.1s-.3.1-.5.2c-.1.1-.2.2-.3.4s-.1.4-.1.6 0 .4.1.6.2.3.3.4.3.2.5.2.4.1.6.1h.6V78h-.6zm9.1 0h-2.8v5.5h-.8v-6.2h4.3v6.2h-.7zm2.4-.5c.2-.1.5-.1.7-.1h.8c.3 0 .5 0 .8.1s.5.1.8.3c.2.1.4.3.6.6.1.2.2.6.2.9 0 .4-.1.7-.2 1s-.3.5-.5.6c-.2.2-.5.3-.8.3-.3.1-.6.1-.9.1h-.7v2.3h-.8zm1.5.5h-.7v2.6h.6c.2 0 .4 0 .6-.1.2 0 .4-.1.5-.2s.3-.2.4-.4.1-.4.1-.7c0-.2 0-.4-.1-.6s-.2-.3-.4-.4-.3-.2-.5-.2h-.5zm6 3.8h-2.3l-.6 1.7h-.7l2.3-6.3h.3l2.3 6.3h-.8zm-2.1-.6h1.8l-.7-1.9-.2-.9-.2 1zm5.6-.5h-.4v2.9h-.7v-6.2h.7v2.9l.4-.1 2.1-2.7h.8l-2.1 2.6-.4.3.4.4 2.3 2.9h-.9zm8.3-2.7h-1.9v5.5h-.7V78h-1.9v-.7h4.6v.7zm4.8 1.4l.1-.7-.4.7-3 4.2h-.4v-6.2h.7v4.2l-.1.7.4-.7 3-4.2h.4v6.2h-.7zm3.6 1.3h-.4v2.9h-.7v-6.2h.7v2.9l.4-.1 2.1-2.7h.8l-2.1 2.6-.4.3.4.4 2.3 2.9h-.9zm7.3 1.1h-2.3l-.6 1.7h-.7l2.3-6.3h.3l2.3 6.3h-.8zm-2-.6h1.8l-.7-1.9-.2-.9-.2 1z" fill="#fff"/></svg>